<?xml version="1.0" encoding="UTF-8" standalone="no"?>
<svg
   xmlns:dc="http://purl.org/dc/elements/1.1/"
   xmlns:cc="http://creativecommons.org/ns#"
   xmlns:rdf="http://www.w3.org/1999/02/22-rdf-syntax-ns#"
   xmlns:svg="http://www.w3.org/2000/svg"
   xmlns="http://www.w3.org/2000/svg"
   xmlns:sodipodi="http://sodipodi.sourceforge.net/DTD/sodipodi-0.dtd"
   xmlns:inkscape="http://www.inkscape.org/namespaces/inkscape"
   version="1.1"
   id="Layer_1"
   x="0px"
   y="0px"
   width="44"
   height="44"
   viewBox="0 0 44 44"
   enable-background="new 0 0 100 100"
   xml:space="preserve"
   inkscape:version="0.48.4 r9939"
   sodipodi:docname="icon.svg"><metadata
   id="metadata3001"><rdf:RDF><cc:Work
       rdf:about=""><dc:format>image/svg+xml</dc:format><dc:type
         rdf:resource="http://purl.org/dc/dcmitype/StillImage" /></cc:Work></rdf:RDF></metadata><defs
   id="defs2999" /><sodipodi:namedview
   pagecolor="#ffffff"
   bordercolor="#666666"
   borderopacity="1"
   objecttolerance="10"
   gridtolerance="10"
   guidetolerance="10"
   inkscape:pageopacity="0"
   inkscape:pageshadow="2"
   inkscape:window-width="1920"
   inkscape:window-height="1058"
   id="namedview2997"
   showgrid="true"
   fit-margin-top="0"
   fit-margin-left="0"
   fit-margin-right="0"
   fit-margin-bottom="0"
   inkscape:zoom="6.675088"
   inkscape:cx="7.134561"
   inkscape:cy="21.907072"
   inkscape:window-x="-8"
   inkscape:window-y="-8"
   inkscape:window-maximized="1"
   inkscape:current-layer="Layer_1"><inkscape:grid
     type="xygrid"
     id="grid3003"
     empspacing="5"
     visible="true"
     enabled="true"
     snapvisiblegridlinesonly="true"
     originx="-27.946px"
     originy="-24.735px" /></sodipodi:namedview>
<path
   clip-rule="evenodd"
   d="m 35.9645,32.498 c -0.068,-1.402 -0.34,-2.746 -0.791,-4.01 2.83,-1.229 4.824,-4.018 4.824,-7.3 0,-4.418 -3.58,-8 -7.998,-8 -1.6,0 -3.084,0.481 -4.334,1.29 -1.23,-5.3160002 -5.973,-9.2889997 -11.664,-9.2889997 -6.627,0 -11.999,5.3709997 -11.999,11.9979997 0,4.172 2.143,7.828 5.375,9.976 -0.588,1.23 -0.999,2.559 -1.207,3.957 -4.87,-2.742 -8.168,-7.946 -8.168,-13.933 0,-8.8349997 7.163,-15.9979998 15.999,-15.9979998 6.004,0 11.229,3.3120001 13.965,8.2039996 0.664,-0.114 1.336,-0.205 2.033,-0.205 6.627,0 11.998,5.3720002 11.998,12.0000002 0,5.234 -3.357,9.673 -8.033,11.31 z m -13.963,-9.686 v 0.018 h 2.984 l -2.227,-2.227 c -0.781,-0.781 -0.781,-2.047 0,-2.829 0.779,-0.78 2.047,-0.78 2.826,0 l 5.656,5.657 c 0.781,0.78 0.781,2.046 0,2.827 l -5.656,5.656 c -0.779,0.781 -2.047,0.781 -2.826,0 -0.781,-0.781 -0.781,-2.047 0,-2.828 l 2.258,-2.258 h -3.016 l 0,0 c -3.314,0 -6,2.686 -6,6 0,3.312 2.686,5.998 6,5.998 3.312,0 5.998,-2.686 5.998,-5.998 0,-0.156 -0.033,-0.301 -0.045,-0.453 l 3.312,-3.312 c 0.469,1.158 0.732,2.422 0.732,3.748 0,5.523 -4.477,10 -9.998,10 -5.523,0 -10,-4.477 -10,-10 0.003,-5.522 4.479,-9.999 10.002,-9.999 z"
   id="path2995"
   inkscape:connector-curvature="0"
   style="fill:#000000;fill-rule:evenodd" />
</svg>